<svg aria-hidden="true" style="position: absolute; width: 0; height: 0; overflow: hidden;" version="1.1" xmlns="http://www.w3.org/2000/svg" xmlns:xlink="http://www.w3.org/1999/xlink">
<defs>
<symbol id="icon-award" viewBox="0 0 24 24">
<path d="M14.986 15.424l0.75 5.652-3.221-1.933c-0.311-0.184-0.703-0.196-1.029 0l-3.221 1.933 0.751-5.651c0.921 0.371 1.929 0.575 2.984 0.575s2.063-0.205 2.986-0.576zM15.332 12.991c-0.058 0.030-0.113 0.065-0.163 0.105-0.92 0.573-2.005 0.904-3.169 0.904-1.657 0-3.156-0.67-4.243-1.757s-1.757-2.586-1.757-4.243 0.67-3.156 1.757-4.243 2.586-1.757 4.243-1.757 3.156 0.67 4.243 1.757 1.757 2.586 1.757 4.243-0.67 3.156-1.757 4.243c-0.278 0.278-0.583 0.529-0.911 0.748zM7.14 14.355l-1.131 8.513c-0.073 0.547 0.312 1.050 0.86 1.123 0.234 0.031 0.461-0.022 0.646-0.134l4.485-2.691 4.486 2.691c0.474 0.284 1.088 0.131 1.372-0.343 0.122-0.203 0.163-0.431 0.134-0.646l-1.13-8.515c0.28-0.215 0.546-0.448 0.795-0.697 1.446-1.446 2.343-3.447 2.343-5.656s-0.897-4.21-2.343-5.657-3.448-2.343-5.657-2.343-4.21 0.897-5.657 2.343-2.343 3.448-2.343 5.657 0.897 4.21 2.343 5.657c0.25 0.25 0.516 0.483 0.796 0.698z"></path>
</symbol>
<symbol id="icon-book" viewBox="0 0 24 24">
<path d="M6.5 1c-0.966 0-1.843 0.393-2.475 1.025s-1.025 1.509-1.025 2.475v15c0 0.966 0.393 1.843 1.025 2.475s1.509 1.025 2.475 1.025h13.5c0.552 0 1-0.448 1-1v-20c0-0.552-0.448-1-1-1zM19 18v3h-12.5c-0.414 0-0.788-0.167-1.061-0.439s-0.439-0.647-0.439-1.061 0.167-0.788 0.439-1.061 0.647-0.439 1.061-0.439zM6.5 3h12.5v13h-12.5c-0.537 0-1.045 0.121-1.5 0.337v-11.837c0-0.414 0.167-0.788 0.439-1.061s0.647-0.439 1.061-0.439z"></path>
</symbol>
<symbol id="icon-code" viewBox="0 0 24 24">
<path d="M16.707 18.707l6-6c0.391-0.391 0.391-1.024 0-1.414l-6-6c-0.391-0.391-1.024-0.391-1.414 0s-0.391 1.024 0 1.414l5.293 5.293-5.293 5.293c-0.391 0.391-0.391 1.024 0 1.414s1.024 0.391 1.414 0zM7.293 5.293l-6 6c-0.391 0.391-0.391 1.024 0 1.414l6 6c0.391 0.391 1.024 0.391 1.414 0s0.391-1.024 0-1.414l-5.293-5.293 5.293-5.293c0.391-0.391 0.391-1.024 0-1.414s-1.024-0.391-1.414 0z"></path>
</symbol>
<symbol id="icon-feather" viewBox="0 0 24 24">
<path d="M18.111 15.792c0.069-0.053 0.13-0.115 0.183-0.184l2.653-2.661c1.367-1.367 2.051-3.161 2.051-4.952s-0.684-3.585-2.051-4.952-3.161-2.051-4.952-2.051-3.585 0.684-4.952 2.051l-6.75 6.75c-0.195 0.195-0.293 0.451-0.293 0.707v8.086l-2.707 2.707c-0.391 0.391-0.391 1.024 0 1.414s1.024 0.391 1.414 0l2.707-2.707h8.086c0.277 0 0.527-0.112 0.708-0.294zM9.414 16h5.665l-1.994 2h-5.671zM17.073 14h-5.659l5.293-5.293c0.391-0.391 0.391-1.024 0-1.414s-1.024-0.391-1.414 0l-9.293 9.293v-5.672l6.457-6.457c0.977-0.977 2.256-1.465 3.538-1.465s2.561 0.488 3.538 1.465 1.465 2.256 1.465 3.538-0.488 2.561-1.465 3.538z"></path>
</symbol>
<symbol id="icon-globe" viewBox="0 0 24 24">
<path d="M16.951 11c-0.214-2.69-1.102-5.353-2.674-7.71 1.57 0.409 2.973 1.232 4.087 2.346 1.408 1.408 2.351 3.278 2.581 5.364zM14.279 20.709c1.483-2.226 2.437-4.853 2.669-7.709h3.997c-0.23 2.086-1.173 3.956-2.581 5.364-1.113 1.113-2.516 1.936-4.085 2.345zM7.049 13c0.214 2.69 1.102 5.353 2.674 7.71-1.57-0.409-2.973-1.232-4.087-2.346-1.408-1.408-2.351-3.278-2.581-5.364zM9.721 3.291c-1.482 2.226-2.436 4.853-2.669 7.709h-3.997c0.23-2.086 1.173-3.956 2.581-5.364 1.114-1.113 2.516-1.936 4.085-2.345zM12.004 1c0 0 0 0 0 0-3.044 0.001-5.794 1.233-7.782 3.222-1.99 1.989-3.222 4.741-3.222 7.778s1.232 5.789 3.222 7.778c1.988 1.989 4.738 3.221 7.774 3.222 0 0 0 0 0 0 3.044-0.001 5.793-1.233 7.782-3.222 1.99-1.989 3.222-4.741 3.222-7.778s-1.232-5.789-3.222-7.778c-1.988-1.989-4.738-3.221-7.774-3.222zM14.946 13c-0.252 2.788-1.316 5.36-2.945 7.451-1.729-2.221-2.706-4.818-2.945-7.451zM11.999 3.549c1.729 2.221 2.706 4.818 2.945 7.451h-5.89c0.252-2.788 1.316-5.36 2.945-7.451z"></path>
</symbol>
<symbol id="icon-user" viewBox="0 0 24 24">
<path d="M21 21v-2c0-1.38-0.561-2.632-1.464-3.536s-2.156-1.464-3.536-1.464h-8c-1.38 0-2.632 0.561-3.536 1.464s-1.464 2.156-1.464 3.536v2c0 0.552 0.448 1 1 1s1-0.448 1-1v-2c0-0.829 0.335-1.577 0.879-2.121s1.292-0.879 2.121-0.879h8c0.829 0 1.577 0.335 2.121 0.879s0.879 1.292 0.879 2.121v2c0 0.552 0.448 1 1 1s1-0.448 1-1zM17 7c0-1.38-0.561-2.632-1.464-3.536s-2.156-1.464-3.536-1.464-2.632 0.561-3.536 1.464-1.464 2.156-1.464 3.536 0.561 2.632 1.464 3.536 2.156 1.464 3.536 1.464 2.632-0.561 3.536-1.464 1.464-2.156 1.464-3.536zM15 7c0 0.829-0.335 1.577-0.879 2.121s-1.292 0.879-2.121 0.879-1.577-0.335-2.121-0.879-0.879-1.292-0.879-2.121 0.335-1.577 0.879-2.121 1.292-0.879 2.121-0.879 1.577 0.335 2.121 0.879 0.879 1.292 0.879 2.121z"></path>
</symbol>
<symbol id="icon-gmail" viewBox="0 0 32 32">
<path fill="#d14836" style="fill: var(--color1, #d14836)" d="M32 6v20c0 1.133-0.867 2-2 2h-2v-18.151l-12 8.617-12-8.617v18.151h-2c-1.135 0-2-0.867-2-2v-20c0-0.567 0.216-1.067 0.575-1.424 0.359-0.363 0.86-0.576 1.425-0.576h0.667l13.333 9.667 13.333-9.667h0.667c0.567 0 1.067 0.216 1.425 0.576 0.36 0.357 0.575 0.857 0.575 1.424z"></path>
</symbol>
<symbol id="icon-discord" viewBox="0 0 32 32">
<path fill="#7289da" style="fill: var(--color2, #7289da)" d="M26.963 0c1.875 0 3.387 1.516 3.476 3.3v28.7l-3.569-3.031-1.96-1.784-2.139-1.864 0.893 2.94h-18.717c-1.869 0-3.387-1.42-3.387-3.301v-21.653c0-1.784 1.52-3.303 3.393-3.303h22zM18.805 7.577h-0.040l-0.269 0.267c2.764 0.8 4.101 2.049 4.101 2.049-1.781-0.891-3.387-1.336-4.992-1.516-1.16-0.18-2.32-0.085-3.3 0h-0.267c-0.627 0-1.96 0.267-3.747 0.98-0.623 0.271-0.98 0.448-0.98 0.448s1.336-1.336 4.28-2.049l-0.18-0.18c0 0-2.229-0.085-4.636 1.693 0 0-2.407 4.192-2.407 9.36 0 0 1.333 2.32 4.991 2.408 0 0 0.533-0.711 1.073-1.336-2.053-0.624-2.853-1.872-2.853-1.872s0.179 0.088 0.447 0.267h0.080c0.040 0 0.059 0.020 0.080 0.040v0.008c0.021 0.021 0.040 0.040 0.080 0.040 0.44 0.181 0.88 0.36 1.24 0.533 0.621 0.269 1.42 0.537 2.4 0.715 1.24 0.18 2.661 0.267 4.28 0 0.8-0.18 1.6-0.356 2.4-0.713 0.52-0.267 1.16-0.533 1.863-0.983 0 0-0.8 1.248-2.94 1.872 0.44 0.621 1.060 1.333 1.060 1.333 3.659-0.080 5.080-2.4 5.16-2.301 0-5.16-2.42-9.36-2.42-9.36-2.18-1.619-4.22-1.68-4.58-1.68zM19.029 13.461c0.937 0 1.693 0.8 1.693 1.78 0 0.987-0.76 1.787-1.693 1.787s-1.693-0.8-1.693-1.779c0.003-0.987 0.764-1.784 1.693-1.788zM12.972 13.461c0.933 0 1.688 0.8 1.688 1.78 0 0.987-0.76 1.787-1.693 1.787s-1.693-0.8-1.693-1.779c0-0.987 0.76-1.784 1.699-1.788z"></path>
</symbol>
<symbol id="icon-github" viewBox="0 0 32 32">
<path d="M16 0.395c-8.836 0-16 7.163-16 16 0 7.069 4.585 13.067 10.942 15.182 0.8 0.148 1.094-0.347 1.094-0.77 0-0.381-0.015-1.642-0.022-2.979-4.452 0.968-5.391-1.888-5.391-1.888-0.728-1.849-1.776-2.341-1.776-2.341-1.452-0.993 0.11-0.973 0.11-0.973 1.606 0.113 2.452 1.649 2.452 1.649 1.427 2.446 3.743 1.739 4.656 1.33 0.143-1.034 0.558-1.74 1.016-2.14-3.554-0.404-7.29-1.777-7.29-7.907 0-1.747 0.625-3.174 1.649-4.295-0.166-0.403-0.714-2.030 0.155-4.234 0 0 1.344-0.43 4.401 1.64 1.276-0.355 2.645-0.532 4.005-0.539 1.359 0.006 2.729 0.184 4.008 0.539 3.054-2.070 4.395-1.64 4.395-1.64 0.871 2.204 0.323 3.831 0.157 4.234 1.026 1.12 1.647 2.548 1.647 4.295 0 6.145-3.743 7.498-7.306 7.895 0.574 0.497 1.085 1.47 1.085 2.963 0 2.141-0.019 3.864-0.019 4.391 0 0.426 0.288 0.925 1.099 0.768 6.354-2.118 10.933-8.113 10.933-15.18 0-8.837-7.164-16-16-16z"></path>
</symbol>
</defs>
</svg>
